<?xml version="1.0" standalone="no"?>
<!DOCTYPE svg PUBLIC "-//W3C//DTD SVG 20010904//EN"
 "http://www.w3.org/TR/2001/REC-SVG-20010904/DTD/svg10.dtd">
<svg version="1.0" xmlns="http://www.w3.org/2000/svg"
 width="460.000000pt" height="460.000000pt" viewBox="0 0 460.000000 460.000000"
 preserveAspectRatio="xMidYMid meet">
<metadata>
Created by potrace 1.14, written by Peter Selinger 2001-2017
</metadata>
<g transform="translate(0.000000,460.000000) scale(0.100000,-0.100000)"
fill="#000000" stroke="none">
<path d="M293 4580 c6 -11 20 -23 29 -26 10 -3 18 -11 18 -19 0 -11 6 -11 29
-2 25 9 33 8 50 -8 12 -10 21 -24 21 -32 0 -19 12 -16 52 11 33 22 35 22 56 5
12 -9 22 -24 22 -33 0 -9 5 -16 10 -16 6 0 10 -6 10 -14 0 -9 7 -12 20 -9 11
3 20 11 20 18 0 19 39 59 60 60 12 1 22 -7 26 -19 4 -12 11 -24 17 -28 15 -9
-41 -81 -59 -74 -8 3 -21 -5 -30 -18 -20 -31 -42 -40 -62 -24 -13 11 -14 11
-8 0 6 -10 1 -13 -20 -10 -20 2 -29 8 -28 21 2 21 -24 22 -50 2 -11 -8 -17
-15 -13 -15 4 0 3 -9 -3 -20 -6 -11 -14 -19 -18 -19 -22 4 -30 -5 -36 -41 -3
-22 -11 -40 -16 -40 -6 0 -12 0 -15 0 -3 0 -24 -8 -47 -18 -24 -9 -61 -16 -85
-14 -35 3 -43 8 -53 32 -7 16 -10 36 -7 45 4 8 -1 21 -9 30 -8 8 -14 23 -13
32 3 34 -1 43 -21 43 -15 0 -20 7 -20 28 -1 20 -12 35 -45 60 -24 17 -51 32
-60 32 -13 0 -15 -229 -15 -2250 l0 -2250 214 0 c162 0 216 3 219 13 4 9 6 9
6 0 1 -10 424 -13 2081 -13 l2080 0 0 2300 0 2300 -1679 0 c-1335 0 -1680 -3
-1684 -12 -3 -10 -7 -10 -19 -1 -11 10 -127 13 -476 13 -459 0 -462 0 -449
-20z m612 -90 c3 -5 1 -10 -4 -10 -6 0 -11 5 -11 10 0 6 2 10 4 10 3 0 8 -4
11 -10z m2242 -106 c-3 -3 -12 -4 -19 -1 -8 3 -5 6 6 6 11 1 17 -2 13 -5z
m-1962 -34 c-3 -5 -10 -10 -16 -10 -5 0 -9 5 -9 10 0 6 7 10 16 10 8 0 12 -4
9 -10z m-655 -30 c0 -5 -2 -10 -4 -10 -3 0 -8 5 -11 10 -3 6 -1 10 4 10 6 0
11 -4 11 -10z m35 -40 c3 -5 1 -10 -4 -10 -6 0 -11 5 -11 10 0 6 2 10 4 10 3
0 8 -4 11 -10z m1975 -6 c0 -8 -5 -12 -10 -9 -6 4 -8 11 -5 16 9 14 15 11 15
-7z m-1735 -104 c-5 -8 -11 -8 -17 -2 -6 6 -7 16 -3 22 5 8 11 8 17 2 6 -6 7
-16 3 -22z m1175 -60 c0 -5 -7 -10 -16 -10 -8 0 -12 5 -9 10 3 6 10 10 16 10
5 0 9 -4 9 -10z m-320 -114 c0 -3 -4 -8 -10 -11 -5 -3 -10 -1 -10 4 0 6 5 11
10 11 6 0 10 -2 10 -4z m1152 -23 c35 -32 10 -103 -37 -103 -25 0 -55 33 -55
61 0 18 44 59 63 59 6 0 19 -7 29 -17z m-1472 -103 c0 -5 -4 -10 -10 -10 -5 0
-10 5 -10 10 0 6 5 10 10 10 6 0 10 -4 10 -10z m1460 -39 c0 -11 -5 -23 -11
-27 -15 -9 -33 12 -26 30 9 23 37 20 37 -3z m110 -221 c0 -5 -4 -10 -10 -10
-5 0 -10 5 -10 10 0 6 5 10 10 10 6 0 10 -4 10 -10z m-1350 -140 c0 -5 -2 -10
-4 -10 -3 0 -8 5 -11 10 -3 6 -1 10 4 10 6 0 11 -4 11 -10z m943 -364 c41 -8
93 -24 116 -35 22 -12 46 -21 54 -21 36 0 171 -124 224 -204 26 -40 95 -237
87 -246 -3 -3 -24 16 -47 42 -23 26 -58 54 -77 64 -19 9 -41 21 -49 27 -7 6
-43 24 -80 40 -107 46 -282 67 -559 67 -225 0 -237 1 -308 26 -41 14 -85 35
-98 47 -14 12 -38 32 -55 45 -26 20 -101 135 -101 155 0 4 184 7 409 7 314 0
427 -3 484 -14z m-1443 -216 c0 -5 -4 -10 -10 -10 -5 0 -10 5 -10 10 0 6 5 10
10 10 6 0 10 -4 10 -10z m2252 -105 c0 -5 -5 -11 -11 -13 -6 -2 -11 4 -11 13
0 9 5 15 11 13 6 -2 11 -8 11 -13z m-593 -70 c54 -19 91 -40 142 -83 58 -49
72 -67 95 -126 36 -88 36 -168 1 -283 -33 -106 -65 -159 -146 -243 -53 -55
-83 -77 -151 -108 -139 -65 -190 -72 -504 -72 l-276 0 0 329 0 329 43 -5 c61
-8 96 -25 149 -72 57 -51 78 -112 78 -226 l0 -78 143 5 c188 6 256 28 328 107
67 73 79 98 87 194 13 145 -9 257 -64 335 -21 28 -16 28 75 -3z m-794 -75 c3
-5 -1 -10 -9 -10 -9 0 -16 5 -16 10 0 6 4 10 9 10 6 0 13 -4 16 -10z m-1687
-59 c21 -13 10 -46 -16 -49 -24 -4 -38 18 -28 43 6 17 24 19 44 6z m3252 -51
c0 -5 -4 -10 -10 -10 -5 0 -10 5 -10 10 0 6 5 10 10 10 6 0 10 -4 10 -10z
m-2670 -20 c0 -5 -4 -10 -10 -10 -5 0 -10 5 -10 10 0 6 5 10 10 10 6 0 10 -4
10 -10z m-280 -215 c0 -8 -4 -15 -10 -15 -5 0 -10 7 -10 15 0 8 5 15 10 15 6
0 10 -7 10 -15z m3790 -125 c0 -5 -5 -10 -11 -10 -5 0 -7 5 -4 10 3 6 8 10 11
10 2 0 4 -4 4 -10z m-3080 -4 c0 -3 -4 -8 -10 -11 -5 -3 -10 -1 -10 4 0 6 5
11 10 11 6 0 10 -2 10 -4z m2310 -81 c18 -21 5 -45 -24 -45 -25 0 -44 30 -31
50 9 15 41 12 55 -5z m-1870 -35 c0 -5 -4 -10 -10 -10 -5 0 -10 5 -10 10 0 6
5 10 10 10 6 0 10 -4 10 -10z m2590 -24 c0 -3 -4 -8 -10 -11 -5 -3 -10 -1 -10
4 0 6 5 11 10 11 6 0 10 -2 10 -4z m-4140 -62 c0 -16 -16 -19 -25 -4 -8 13 4
32 16 25 5 -4 9 -13 9 -21z m1000 22 c0 -11 -19 -15 -25 -6 -3 5 1 10 9 10 9
0 16 -2 16 -4z m3340 -46 c0 -5 -4 -10 -10 -10 -5 0 -10 5 -10 10 0 6 5 10 10
10 6 0 10 -4 10 -10z m-1450 -94 c0 -2 3 -11 6 -20 4 -11 1 -16 -10 -16 -9 0
-16 2 -16 4 0 2 -3 11 -6 20 -4 11 -1 16 10 16 9 0 16 -2 16 -4z m1130 -30 c0
-3 -4 -8 -10 -11 -5 -3 -10 -1 -10 4 0 6 5 11 10 11 6 0 10 -2 10 -4z m360
-16 c0 -5 -4 -10 -10 -10 -5 0 -10 5 -10 10 0 6 5 10 10 10 6 0 10 -4 10 -10z
m-2915 -30 c3 -5 1 -10 -4 -10 -6 0 -11 5 -11 10 0 6 2 10 4 10 3 0 8 -4 11
-10z m-230 -80 c3 -5 1 -10 -4 -10 -6 0 -11 5 -11 10 0 6 2 10 4 10 3 0 8 -4
11 -10z m256 -41 c38 -15 73 -83 73 -144 -1 -91 -60 -152 -157 -162 -59 -6
-87 10 -87 51 0 12 -5 27 -12 34 -9 9 -9 12 0 12 14 0 17 185 4 194 -12 7 -52
-22 -52 -39 0 -7 10 -15 23 -17 26 -4 29 -26 5 -42 -13 -8 -23 -8 -35 0 -34
21 -29 79 9 103 46 29 165 34 229 10z m569 -1 c0 -9 3 -9 12 0 21 21 73 14
102 -13 35 -32 46 -64 46 -131 0 -120 -87 -189 -188 -149 -55 22 -85 72 -86
143 -1 52 -1 53 -31 50 l-30 -3 -3 -74 c-3 -88 7 -105 43 -71 14 13 25 20 25
15 0 -14 -68 -75 -85 -75 -28 0 -55 38 -55 79 0 22 -6 42 -12 45 -10 5 -10 7
0 12 6 3 12 21 12 40 0 20 -5 34 -12 34 -7 0 -4 5 7 11 11 6 32 25 48 42 l27
31 0 -37 c0 -30 4 -37 20 -37 12 0 17 5 14 14 -9 23 18 31 33 11 7 -11 13 -14
13 -9 0 5 14 26 31 47 29 36 69 50 69 25z m751 -8 c23 -13 25 -33 4 -50 -33
-27 -74 17 -43 48 15 15 15 15 39 2z m-1751 -36 c0 -8 -4 -12 -10 -9 -5 3 -10
13 -10 21 0 8 5 12 10 9 6 -3 10 -13 10 -21z m1550 -4 c0 -5 -4 -10 -10 -10
-5 0 -10 5 -10 10 0 6 5 10 10 10 6 0 10 -4 10 -10z m-2162 -39 c-2 -9 -13
-17 -26 -19 -16 -3 -22 2 -22 16 0 11 6 22 13 25 20 7 38 -4 35 -22z m1304
-15 c4 -6 8 -46 8 -88 0 -65 3 -77 18 -80 14 -3 12 -7 -11 -22 -24 -16 -32
-17 -55 -7 -22 11 -28 10 -38 -4 -11 -15 -15 -15 -43 -1 -17 9 -35 25 -41 35
-20 38 -12 57 39 84 54 30 69 53 47 75 -19 20 -34 8 -28 -23 3 -20 0 -25 -17
-25 -45 0 -37 58 10 71 31 9 102 -1 111 -15z m619 -3 c10 -11 9 -17 -3 -30
-20 -19 -41 -8 -33 18 4 10 2 19 -4 19 -26 0 -19 -26 20 -76 37 -48 41 -59 33
-82 -14 -41 -57 -57 -102 -40 -49 18 -54 39 -8 31 48 -8 48 16 1 68 -51 57
-45 102 15 111 36 5 68 -2 81 -19z m225 5 c3 -5 11 -4 19 2 8 6 31 10 52 8
l38 -3 3 -87 c2 -71 6 -88 18 -88 21 0 7 -19 -23 -31 -16 -6 -31 -5 -44 1 -16
9 -19 22 -19 95 0 47 -4 85 -8 85 -23 0 -32 -30 -32 -102 0 -43 -2 -78 -4 -78
-2 0 -11 -3 -19 -6 -31 -12 -47 24 -47 107 0 43 -4 79 -8 79 -23 0 -32 -30
-32 -101 0 -69 -2 -78 -20 -84 -39 -12 -50 11 -50 106 0 56 -4 89 -11 89 -5 0
-7 5 -4 10 8 13 72 13 80 0 4 -7 11 -8 18 -2 25 20 81 20 93 0z m225 12 c5 0
9 -47 9 -105 0 -58 -2 -105 -4 -105 -2 0 -11 -3 -19 -6 -32 -12 -47 24 -47
111 0 57 -4 85 -12 88 -17 6 33 27 50 21 8 -2 18 -4 23 -4z m204 -34 c0 -30
-22 -48 -29 -24 -13 43 -16 47 -31 42 -8 -3 -20 -23 -26 -43 -21 -71 40 -149
86 -111 23 19 18 -4 -6 -26 -33 -30 -95 -24 -125 12 -32 40 -39 84 -20 122 28
54 44 63 100 60 49 -3 51 -4 51 -32z m-2015 4 c0 -5 -5 -10 -11 -10 -5 0 -7 5
-4 10 3 6 8 10 11 10 2 0 4 -4 4 -10z m2035 -60 c3 -5 1 -10 -4 -10 -6 0 -11
5 -11 10 0 6 2 10 4 10 3 0 8 -4 11 -10z m-2315 -71 c0 -6 -4 -7 -10 -4 -5 3
-10 11 -10 16 0 6 5 7 10 4 6 -3 10 -11 10 -16z m3040 -59 c0 -5 -4 -10 -10
-10 -5 0 -10 5 -10 10 0 6 5 10 10 10 6 0 10 -4 10 -10z m-1800 -14 c0 -3 -4
-8 -10 -11 -5 -3 -10 -1 -10 4 0 6 5 11 10 11 6 0 10 -2 10 -4z m2086 -17 c3
-6 1 -16 -5 -22 -9 -9 -14 -8 -21 3 -9 15 -4 30 10 30 5 0 12 -5 16 -11z
m-1986 -17 c0 -10 -7 -19 -15 -19 -18 0 -19 9 -3 25 16 16 18 15 18 -6z m-436
-63 c-3 -5 -10 -7 -15 -3 -5 3 -7 10 -3 15 3 5 10 7 15 3 5 -3 7 -10 3 -15z
m-124 -64 c0 -8 -7 -15 -15 -15 -8 0 -15 7 -15 15 0 8 7 15 15 15 8 0 15 -7
15 -15z m-590 1 c0 -3 -4 -8 -10 -11 -5 -3 -10 -1 -10 4 0 6 5 11 10 11 6 0
10 -2 10 -4z m790 -66 c0 -5 -7 -10 -15 -10 -8 0 -15 5 -15 10 0 6 7 10 15 10
8 0 15 -4 15 -10z m285 -20 c3 -5 1 -10 -4 -10 -6 0 -11 5 -11 10 0 6 2 10 4
10 3 0 8 -4 11 -10z m-1445 -36 c0 -8 -5 -12 -10 -9 -6 4 -8 11 -5 16 9 14 15
11 15 -7z m1200 -44 c0 -5 -2 -10 -4 -10 -3 0 -8 5 -11 10 -3 6 -1 10 4 10 6
0 11 -4 11 -10z m80 0 c0 -5 -4 -10 -10 -10 -5 0 -10 5 -10 10 0 6 5 10 10 10
6 0 10 -4 10 -10z m-955 -40 c3 -5 -1 -10 -10 -10 -9 0 -13 5 -10 10 3 6 8 10
10 10 2 0 7 -4 10 -10z m1180 0 c-3 -5 -10 -10 -16 -10 -5 0 -9 5 -9 10 0 6 7
10 16 10 8 0 12 -4 9 -10z m152 -62 c-3 -8 -6 -5 -6 6 -1 11 2 17 5 13 3 -3 4
-12 1 -19z m-327 -6 c0 -13 -12 -22 -22 -16 -10 6 -1 24 13 24 5 0 9 -4 9 -8z
m-1110 -42 c0 -5 -4 -10 -10 -10 -5 0 -10 5 -10 10 0 6 5 10 10 10 6 0 10 -4
10 -10z m-450 -20 c0 -5 -4 -10 -10 -10 -5 0 -10 5 -10 10 0 6 5 10 10 10 6 0
10 -4 10 -10z m360 -30 c0 -5 -4 -10 -10 -10 -5 0 -10 5 -10 10 0 6 5 10 10
10 6 0 10 -4 10 -10z m-265 -40 c3 -5 -1 -10 -10 -10 -9 0 -13 5 -10 10 3 6 8
10 10 10 2 0 7 -4 10 -10z m1230 -60 c3 -5 -1 -10 -9 -10 -9 0 -16 5 -16 10 0
6 4 10 9 10 6 0 13 -4 16 -10z m312 -32 c-3 -8 -6 -5 -6 6 -1 11 2 17 5 13 3
-3 4 -12 1 -19z m-1132 -108 c3 -5 1 -10 -4 -10 -6 0 -11 5 -11 10 0 6 2 10 4
10 3 0 8 -4 11 -10z m1365 -65 c0 -8 -4 -15 -10 -15 -5 0 -10 7 -10 15 0 8 5
15 10 15 6 0 10 -7 10 -15z m-1945 -185 c3 -5 -1 -10 -10 -10 -9 0 -13 5 -10
10 3 6 8 10 10 10 2 0 7 -4 10 -10z m475 -70 c0 -5 -7 -10 -16 -10 -8 0 -12 5
-9 10 3 6 10 10 16 10 5 0 9 -4 9 -10z m3358 -56 c3 -22 -21 -39 -39 -28 -11
6 -12 38 -2 48 13 13 38 1 41 -20z m242 6 c0 -5 -7 -10 -15 -10 -8 0 -15 5
-15 10 0 6 7 10 15 10 8 0 15 -4 15 -10z m-2270 -70 c0 -5 -5 -10 -11 -10 -5
0 -7 5 -4 10 3 6 8 10 11 10 2 0 4 -4 4 -10z"/>
<path d="M1550 1505 c0 -121 2 -136 16 -131 9 3 17 6 20 6 2 0 11 16 19 36 32
76 8 214 -37 222 -16 3 -18 -8 -18 -133z m35 -3 c0 -18 -20 -15 -23 4 -3 10 1
15 10 12 7 -3 13 -10 13 -16z"/>
<path d="M2215 1609 c-4 -13 -1 -27 9 -38 21 -23 20 -31 -3 -31 -21 0 -37 16
-44 45 -2 11 -5 -16 -6 -61 0 -45 4 -95 10 -112 14 -41 47 -52 70 -23 43 53
31 241 -16 241 -7 0 -17 -9 -20 -21z"/>
<path d="M1795 1440 c-8 -13 4 -50 16 -50 5 0 9 14 9 30 0 30 -13 40 -25 20z"/>
<path d="M277 4494 c-8 -8 1 -24 14 -24 5 0 9 7 9 15 0 15 -12 20 -23 9z"/>
<path d="M220 4426 c0 -8 -7 -19 -16 -24 -12 -7 -13 -11 -4 -17 7 -4 20 0 30
11 16 16 17 21 4 32 -11 11 -14 10 -14 -2z"/>
</g>
</svg>
